<svg width="21" height="20" version="1.1" xmlns="http://www.w3.org/2000/svg"><path fill="rgb(14,186,206)" stroke="rgb(14,186,206)" stroke-width="1" opacity="0.023529411764705882" d="M 16.5 0 L 17 2.5 L 16 2.5 L 16.5 0 Z "></path><path fill="rgb(0,0,0)" stroke="rgb(0,0,0)" stroke-width="1" opacity="0" d="M 0 0 L 5 0.5 L 0 4.5 L 0 0 Z "></path><path fill="rgb(0,0,0)" stroke="rgb(0,0,0)" stroke-width="1" opacity="0" d="M 17 0 Q 23 -2.3 21 4.5 L 19 3.5 Q 19.7 0.9 17 2 L 17 0 Z "></path><path fill="rgb(0,0,0)" stroke="rgb(0,0,0)" stroke-width="1" opacity="0" d="M 8.5 2 L 16 3.5 L 10.5 12 L 8 8 Q 3.9 6.3 5 10.5 L 9 17 L 13 14.5 L 17.5 6 L 19 11.5 L 17 16 Q 14.7 18.6 8.5 18 L 4 16 L 2 8.5 L 6.5 3 L 8.5 2 Z "></path><path fill="rgb(0,0,0)" stroke="rgb(0,0,0)" stroke-width="1" opacity="0" d="M 0.5 15 L 2 18 L 5 19.5 L 0 20 L 0.5 15 Z "></path><path fill="rgb(0,0,0)" stroke="rgb(0,0,0)" stroke-width="1" opacity="0" d="M 20.5 15 L 21 20 L 16 19.5 L 19 18 L 20.5 15 Z "></path><path fill="rgb(28,167,194)" stroke="rgb(28,167,194)" stroke-width="1" opacity="0.9921568627450981" d="M 9.5 0 L 12 0.5 L 9.5 1 L 9.5 0 Z "></path><path fill="rgb(28,167,194)" stroke="rgb(28,167,194)" stroke-width="1" opacity="0.9921568627450981" d="M 4.5 2 L 2.5 5 L 4.5 2 Z "></path><path fill="rgb(28,167,194)" stroke="rgb(28,167,194)" stroke-width="1" opacity="0.9921568627450981" d="M 17.5 3 L 18.5 5 L 15.5 7 L 17 4.5 L 17.5 3 Z "></path><path fill="rgb(28,167,194)" stroke="rgb(28,167,194)" stroke-width="1" opacity="0.9921568627450981" d="M 14.5 8 L 14 9.5 L 12.5 12 L 13 10.5 L 14.5 8 Z "></path><path fill="rgb(28,167,194)" stroke="rgb(28,167,194)" stroke-width="1" opacity="0.9921568627450981" d="M 20.5 8 L 21 11.5 L 20 11.5 L 20.5 8 Z "></path><path fill="rgb(28,167,194)" stroke="rgb(28,167,194)" stroke-width="1" opacity="0.9921568627450981" d="M 8.5 12 Q 10.3 15.1 12 13.5 L 10.5 15 L 8.5 12 Z "></path><path fill="rgb(28,167,194)" stroke="rgb(28,167,194)" stroke-width="1" opacity="0.9921568627450981" d="M 2.5 15 L 4.5 18 L 2.5 15 Z "></path><path fill="rgb(28,167,194)" stroke="rgb(28,167,194)" stroke-width="1" opacity="0.9921568627450981" d="M 18.5 15 L 16.5 18 L 18.5 15 Z "></path><path fill="rgb(28,167,194)" stroke="rgb(28,167,194)" stroke-width="1" opacity="0.9921568627450981" d="M 9.5 19 L 12 19.5 L 9.5 20 L 9.5 19 Z "></path><path fill="rgb(27,168,194)" stroke="rgb(27,168,194)" stroke-width="1" opacity="0.8980392156862745" d="M 1.5 7 L 0.5 9 L 1.5 7 Z "></path><path fill="rgb(27,168,194)" stroke="rgb(27,168,194)" stroke-width="1" opacity="0.8980392156862745" d="M 0.5 11 L 1.5 13 L 0.5 11 Z "></path><path fill="rgb(27,168,194)" stroke="rgb(27,168,194)" stroke-width="1" opacity="0.8980392156862745" d="M 11.5 12 L 13 12.5 L 10 14.5 L 10.5 16 Q 7 14 11.5 12 Z "></path><path fill="rgb(27,167,194)" stroke="rgb(27,167,194)" stroke-width="1" opacity="0.5803921568627451" d="M 7.5 0 L 12.5 1 L 14 0.5 Q 13 3 8.5 2 L 7.5 0 Z "></path><path fill="rgb(27,167,194)" stroke="rgb(27,167,194)" stroke-width="1" opacity="0.5803921568627451" d="M 3.5 2 Q 6.5 3.5 3.5 5 Q 0.5 3.5 3.5 2 Z "></path><path fill="rgb(27,167,194)" stroke="rgb(27,167,194)" stroke-width="1" opacity="0.5803921568627451" d="M 19.5 8 L 20 11.5 L 19 11.5 L 19.5 8 Z "></path><path fill="rgb(27,167,194)" stroke="rgb(27,167,194)" stroke-width="1" opacity="0.5803921568627451" d="M 1.5 9 L 2 11.5 L 0 12.5 L 1.5 9 Z "></path><path fill="rgb(27,167,194)" stroke="rgb(27,167,194)" stroke-width="1" opacity="0.5803921568627451" d="M 3.5 15 Q 6.5 16.5 3.5 18 Q 0.5 16.5 3.5 15 Z "></path><path fill="rgb(27,167,194)" stroke="rgb(27,167,194)" stroke-width="1" opacity="0.5803921568627451" d="M 17.5 15 L 20 15.5 Q 18 20 16 16.5 L 17.5 15 Z "></path><path fill="rgb(27,167,194)" stroke="rgb(27,167,194)" stroke-width="1" opacity="0.5803921568627451" d="M 8.5 18 L 10 18.5 L 7.5 20 L 8.5 18 Z "></path><path fill="rgb(27,167,194)" stroke="rgb(27,167,194)" stroke-width="1" opacity="0.5803921568627451" d="M 11.5 18 L 15 19.5 L 13.5 20 L 11.5 18 Z "></path><path fill="rgb(29,166,194)" stroke="rgb(29,166,194)" stroke-width="1" opacity="0.2235294117647059" d="M 6.5 2 L 5.5 4 L 6.5 2 Z "></path><path fill="rgb(29,166,194)" stroke="rgb(29,166,194)" stroke-width="1" opacity="0.2235294117647059" d="M 14.5 2 L 16.5 3 L 18 2.5 L 15 4.5 L 15.5 3 L 14.5 2 Z "></path><path fill="rgb(29,166,194)" stroke="rgb(29,166,194)" stroke-width="1" opacity="0.2235294117647059" d="M 19.5 4 L 21 6.5 L 20 6.5 L 19.5 4 Z "></path><path fill="rgb(29,166,194)" stroke="rgb(29,166,194)" stroke-width="1" opacity="0.2235294117647059" d="M 3.5 5 L 3 6.5 L 2.5 8 L 2 6.5 L 3.5 5 Z "></path><path fill="rgb(29,166,194)" stroke="rgb(29,166,194)" stroke-width="1" opacity="0.2235294117647059" d="M 5 8 L 7 8.5 L 5 9.5 L 5 8 Z "></path><path fill="rgb(29,166,194)" stroke="rgb(29,166,194)" stroke-width="1" opacity="0.2235294117647059" d="M 8.5 10 Q 10.3 13.1 12 11.5 L 10.5 13 L 8.5 10 Z "></path><path fill="rgb(29,166,194)" stroke="rgb(29,166,194)" stroke-width="1" opacity="0.2235294117647059" d="M 6.5 11 L 7.5 13 L 6.5 11 Z "></path><path fill="rgb(29,166,194)" stroke="rgb(29,166,194)" stroke-width="1" opacity="0.2235294117647059" d="M 13.5 12 L 12.5 14 L 13.5 12 Z "></path><path fill="rgb(29,166,194)" stroke="rgb(29,166,194)" stroke-width="1" opacity="0.2235294117647059" d="M 8.5 14 Q 10.3 17.1 12 15.5 L 10.5 17 L 8.5 14 Z "></path><path fill="rgb(29,166,194)" stroke="rgb(29,166,194)" stroke-width="1" opacity="0.2235294117647059" d="M 4.5 18 L 7 19.5 L 5.5 20 L 4.5 18 Z "></path><path fill="rgb(29,166,194)" stroke="rgb(29,166,194)" stroke-width="1" opacity="0.2235294117647059" d="M 16.5 18 L 15.5 20 L 16.5 18 Z "></path></svg>